<svg width="327" height="72" viewBox="0 0 327 72" fill="none" xmlns="http://www.w3.org/2000/svg">
<path d="M197.965 41.1641V44H187.816V41.1641H197.965ZM197.836 28.9414L189.316 44H186.914V41.9258L195.539 26.9375H197.836V28.9414ZM196.676 26.9375V29.7852H186.844V26.9375H196.676ZM205.863 36.5586H202.371L202.359 34.0742H205.336C205.805 34.0742 206.188 33.9961 206.484 33.8398C206.789 33.6758 207.012 33.4375 207.152 33.125C207.301 32.8047 207.375 32.418 207.375 31.9648C207.375 31.4414 207.309 31.0234 207.176 30.7109C207.043 30.3906 206.828 30.1562 206.531 30.0078C206.234 29.8594 205.848 29.7852 205.371 29.7852H203.543V44H200.109V26.9375H205.371C206.223 26.9375 206.984 27.0312 207.656 27.2188C208.328 27.4062 208.898 27.6914 209.367 28.0742C209.836 28.457 210.191 28.9414 210.434 29.5273C210.684 30.1133 210.809 30.8047 210.809 31.6016C210.809 32.3047 210.668 32.9531 210.387 33.5469C210.105 34.1406 209.664 34.625 209.062 35C208.469 35.375 207.691 35.5859 206.73 35.6328L205.863 36.5586ZM205.746 44H201.398L202.77 41.1641H205.746C206.199 41.1641 206.566 41.0664 206.848 40.8711C207.129 40.6758 207.332 40.4141 207.457 40.0859C207.582 39.75 207.645 39.3672 207.645 38.9375C207.645 38.4531 207.586 38.0312 207.469 37.6719C207.359 37.3125 207.176 37.0391 206.918 36.8516C206.66 36.6562 206.312 36.5586 205.875 36.5586H202.922L202.945 34.0742H206.531L207.34 35.0586C208.254 35.0273 208.984 35.2031 209.531 35.5859C210.078 35.9609 210.469 36.4531 210.703 37.0625C210.945 37.6641 211.066 38.3047 211.066 38.9844C211.066 40.0781 210.859 41 210.445 41.75C210.039 42.4922 209.441 43.0547 208.652 43.4375C207.863 43.8125 206.895 44 205.746 44ZM213.598 26.9375H219.07C220.211 26.9375 221.184 27.1328 221.988 27.5234C222.793 27.9141 223.41 28.4922 223.84 29.2578C224.27 30.0234 224.484 30.9688 224.484 32.0938C224.484 33.0156 224.359 33.8047 224.109 34.4609C223.859 35.1094 223.504 35.6523 223.043 36.0898C222.582 36.5195 222.031 36.8633 221.391 37.1211L220.348 37.7422H215.906L215.895 34.8945H218.977C219.445 34.8945 219.832 34.793 220.137 34.5898C220.449 34.3789 220.68 34.0859 220.828 33.7109C220.984 33.3281 221.062 32.8828 221.062 32.375C221.062 31.8359 220.992 31.375 220.852 30.9922C220.719 30.6016 220.504 30.3047 220.207 30.1016C219.918 29.8906 219.539 29.7852 219.07 29.7852H217.031V44H213.598V26.9375ZM221.344 44L218.215 36.3945L221.812 36.3828L225.012 43.8359V44H221.344ZM238.863 34.1445V36.9922C238.863 38.1953 238.715 39.25 238.418 40.1562C238.129 41.0547 237.715 41.8086 237.176 42.418C236.645 43.0195 236 43.4727 235.242 43.7773C234.492 44.082 233.66 44.2344 232.746 44.2344C231.832 44.2344 230.996 44.082 230.238 43.7773C229.488 43.4727 228.84 43.0195 228.293 42.418C227.754 41.8086 227.336 41.0547 227.039 40.1562C226.742 39.25 226.594 38.1953 226.594 36.9922V34.1445C226.594 32.9102 226.738 31.832 227.027 30.9102C227.316 29.9805 227.734 29.207 228.281 28.5898C228.828 27.9648 229.477 27.4961 230.227 27.1836C230.977 26.8633 231.809 26.7031 232.723 26.7031C233.637 26.7031 234.469 26.8633 235.219 27.1836C235.969 27.4961 236.617 27.9648 237.164 28.5898C237.711 29.207 238.129 29.9805 238.418 30.9102C238.715 31.832 238.863 32.9102 238.863 34.1445ZM235.453 36.9922V34.1211C235.453 33.3086 235.395 32.6172 235.277 32.0469C235.16 31.4688 234.984 30.9961 234.75 30.6289C234.516 30.2617 234.23 29.9922 233.895 29.8203C233.559 29.6484 233.168 29.5625 232.723 29.5625C232.277 29.5625 231.883 29.6484 231.539 29.8203C231.203 29.9922 230.918 30.2617 230.684 30.6289C230.457 30.9961 230.285 31.4688 230.168 32.0469C230.059 32.6172 230.004 33.3086 230.004 34.1211V36.9922C230.004 37.7734 230.062 38.4414 230.18 38.9961C230.297 39.5508 230.473 40.0039 230.707 40.3555C230.941 40.707 231.227 40.9688 231.562 41.1406C231.906 41.3047 232.301 41.3867 232.746 41.3867C233.184 41.3867 233.57 41.3047 233.906 41.1406C234.25 40.9688 234.535 40.707 234.762 40.3555C234.988 40.0039 235.16 39.5508 235.277 38.9961C235.395 38.4414 235.453 37.7734 235.453 36.9922ZM246.973 38.7383V26.9375H250.395V38.75C250.395 39.8828 250.176 40.8633 249.738 41.6914C249.309 42.5117 248.723 43.1406 247.98 43.5781C247.238 44.0156 246.402 44.2344 245.473 44.2344C244.52 44.2344 243.668 44.0469 242.918 43.6719C242.176 43.2891 241.59 42.7109 241.16 41.9375C240.73 41.1562 240.516 40.1641 240.516 38.9609H243.961C243.961 39.5703 244.023 40.0508 244.148 40.4023C244.273 40.7539 244.449 41.0078 244.676 41.1641C244.91 41.3203 245.176 41.3984 245.473 41.3984C245.793 41.3984 246.062 41.293 246.281 41.082C246.508 40.8711 246.68 40.5703 246.797 40.1797C246.914 39.7812 246.973 39.3008 246.973 38.7383ZM259.043 29.9844L255.375 44H251.754L257.086 26.9375H259.348L259.043 29.9844ZM261.938 44L258.246 29.9844L257.906 26.9375H260.203L265.582 44H261.938ZM262.066 37.6367V40.4844H254.367V37.6367H262.066ZM257.062 25.9883L259.359 22.3672H263.051L259.816 25.9883H257.062ZM270.645 26.9375V44H267.211V26.9375H270.645ZM279.117 26.9375L273.586 35.4102L270.199 39.6289L269.543 36.1953L271.734 32.5391L274.945 26.9375H279.117ZM275.156 44L271.43 36.1602L273.949 33.9336L279.199 44H275.156Z" fill="white"/>
<circle cx="232.5" cy="35.5" r="4.5" fill="#FF6000"/>
<line x1="232.5" y1="27" x2="232.5" y2="44" stroke="#FF6000"/>
<line x1="224" y1="35.5" x2="241" y2="35.5" stroke="#FF6000"/>
<circle cx="233" cy="36" r="13.5" stroke="#FF6000"/>
<line x1="232.5" y1="20" x2="232.5" y2="24" stroke="#FF6000"/>
<line x1="232.5" y1="48" x2="232.5" y2="52" stroke="#FF6000"/>
<line x1="245" y1="35.5" x2="249" y2="35.5" stroke="#FF6000"/>
<line x1="217" y1="35.5" x2="221" y2="35.5" stroke="#FF6000"/>
<path d="M46.1953 37.9883H42.7031V35.1406H46.1953C46.6797 35.1406 47.0742 35.0312 47.3789 34.8125C47.6914 34.5938 47.918 34.293 48.0586 33.9102C48.1992 33.5195 48.2695 33.082 48.2695 32.5977C48.2695 32.1055 48.1953 31.6484 48.0469 31.2266C47.9062 30.7969 47.6836 30.4492 47.3789 30.1836C47.082 29.918 46.6875 29.7852 46.1953 29.7852H43.8047V44H40.3828V26.9375H46.1953C47.3438 26.9375 48.332 27.1797 49.1602 27.6641C49.9883 28.1484 50.6211 28.8164 51.0586 29.668C51.5039 30.5117 51.7266 31.4805 51.7266 32.5742C51.7266 33.6758 51.5039 34.6328 51.0586 35.4453C50.6211 36.25 49.9883 36.875 49.1602 37.3203C48.332 37.7656 47.3438 37.9883 46.1953 37.9883ZM54.0352 26.9375H59.5078C60.6484 26.9375 61.6211 27.1328 62.4258 27.5234C63.2305 27.9141 63.8477 28.4922 64.2773 29.2578C64.707 30.0234 64.9219 30.9688 64.9219 32.0938C64.9219 33.0156 64.7969 33.8047 64.5469 34.4609C64.2969 35.1094 63.9414 35.6523 63.4805 36.0898C63.0195 36.5195 62.4688 36.8633 61.8281 37.1211L60.7852 37.7422H56.3438L56.332 34.8945H59.4141C59.8828 34.8945 60.2695 34.793 60.5742 34.5898C60.8867 34.3789 61.1172 34.0859 61.2656 33.7109C61.4219 33.3281 61.5 32.8828 61.5 32.375C61.5 31.8359 61.4297 31.375 61.2891 30.9922C61.1562 30.6016 60.9414 30.3047 60.6445 30.1016C60.3555 29.8906 59.9766 29.7852 59.5078 29.7852H57.4688V44H54.0352V26.9375ZM61.7812 44L58.6523 36.3945L62.25 36.3828L65.4492 43.8359V44H61.7812ZM70.875 26.9375V44H67.4648V26.9375H70.875ZM67.5469 25.9531L69.8438 22.332H73.5352L70.3008 25.9531H67.5469ZM79.6172 37.9883H76.125V35.1406H79.6172C80.1016 35.1406 80.4961 35.0312 80.8008 34.8125C81.1133 34.5938 81.3398 34.293 81.4805 33.9102C81.6211 33.5195 81.6914 33.082 81.6914 32.5977C81.6914 32.1055 81.6172 31.6484 81.4688 31.2266C81.3281 30.7969 81.1055 30.4492 80.8008 30.1836C80.5039 29.918 80.1094 29.7852 79.6172 29.7852H77.2266V44H73.8047V26.9375H79.6172C80.7656 26.9375 81.7539 27.1797 82.582 27.6641C83.4102 28.1484 84.043 28.8164 84.4805 29.668C84.9258 30.5117 85.1484 31.4805 85.1484 32.5742C85.1484 33.6758 84.9258 34.6328 84.4805 35.4453C84.043 36.25 83.4102 36.875 82.582 37.3203C81.7539 37.7656 80.7656 37.9883 79.6172 37.9883ZM87.457 26.9375H92.9297C94.0703 26.9375 95.043 27.1328 95.8477 27.5234C96.6523 27.9141 97.2695 28.4922 97.6992 29.2578C98.1289 30.0234 98.3438 30.9688 98.3438 32.0938C98.3438 33.0156 98.2188 33.8047 97.9688 34.4609C97.7188 35.1094 97.3633 35.6523 96.9023 36.0898C96.4414 36.5195 95.8906 36.8633 95.25 37.1211L94.207 37.7422H89.7656L89.7539 34.8945H92.8359C93.3047 34.8945 93.6914 34.793 93.9961 34.5898C94.3086 34.3789 94.5391 34.0859 94.6875 33.7109C94.8438 33.3281 94.9219 32.8828 94.9219 32.375C94.9219 31.8359 94.8516 31.375 94.7109 30.9922C94.5781 30.6016 94.3633 30.3047 94.0664 30.1016C93.7773 29.8906 93.3984 29.7852 92.9297 29.7852H90.8906V44H87.457V26.9375ZM95.2031 44L92.0742 36.3945L95.6719 36.3828L98.8711 43.8359V44H95.2031ZM106.91 29.9844L103.242 44H99.6211L104.953 26.9375H107.215L106.91 29.9844ZM109.805 44L106.113 29.9844L105.773 26.9375H108.07L113.449 44H109.805ZM109.934 37.6367V40.4844H102.234V37.6367H109.934ZM119.473 40.3555L122.707 26.9375H126.41L121.465 44H118.969L119.473 40.3555ZM116.707 26.9375L119.93 40.3555L120.457 44H117.949L113.039 26.9375H116.707ZM133.324 29.9844L129.656 44H126.035L131.367 26.9375H133.629L133.324 29.9844ZM136.219 44L132.527 29.9844L132.188 26.9375H134.484L139.863 44H136.219ZM136.348 37.6367V40.4844H128.648V37.6367H136.348ZM158.953 26.9375V44H155.637L150.281 33.3242V44H147.023V26.9375H150.293L155.695 37.7305V26.9375H158.953ZM168.105 29.9844L164.438 44H160.816L166.148 26.9375H168.41L168.105 29.9844ZM171 44L167.309 29.9844L166.969 26.9375H169.266L174.645 44H171ZM171.129 37.6367V40.4844H163.43V37.6367H171.129Z" fill="#FF6000"/>
<rect x="1.5" y="1.5" width="324" height="69" stroke="#FF6000" stroke-width="3"/>
<path d="M246.982 54.582V56H241.908V54.582H246.982ZM246.918 48.4707L242.658 56H241.457V54.9629L245.77 47.4688H246.918V48.4707ZM246.338 47.4688V48.8926H241.422V47.4688H246.338ZM251.225 48.9922L249.391 56H247.58L250.246 47.4688H251.377L251.225 48.9922ZM252.672 56L250.826 48.9922L250.656 47.4688H251.805L254.494 56H252.672ZM252.736 52.8184V54.2422H248.887V52.8184H252.736ZM257.535 56H256.029L256.041 54.582H257.535C257.949 54.582 258.271 54.5078 258.502 54.3594C258.732 54.2109 258.895 53.9766 258.988 53.6562C259.086 53.3359 259.135 52.916 259.135 52.3965V51.0664C259.135 50.6719 259.109 50.3379 259.059 50.0645C259.008 49.7871 258.922 49.5645 258.801 49.3965C258.68 49.2246 258.518 49.0977 258.314 49.0156C258.111 48.9336 257.859 48.8926 257.559 48.8926H256V47.4688H257.559C258.051 47.4688 258.498 47.5488 258.9 47.709C259.303 47.8691 259.648 48.1035 259.938 48.4121C260.227 48.7168 260.449 49.0938 260.605 49.543C260.762 49.9922 260.84 50.5039 260.84 51.0781V52.3965C260.84 52.9746 260.762 53.4863 260.605 53.9316C260.449 54.377 260.227 54.7539 259.938 55.0625C259.652 55.3672 259.307 55.5996 258.9 55.7598C258.494 55.9199 258.039 56 257.535 56ZM257.025 47.4688V56H255.309V47.4688H257.025ZM265.053 48.9922L263.219 56H261.408L264.074 47.4688H265.205L265.053 48.9922ZM266.5 56L264.654 48.9922L264.484 47.4688H265.633L268.322 56H266.5ZM266.564 52.8184V54.2422H262.715V52.8184H266.564ZM269.143 47.4688H271.879C272.449 47.4688 272.936 47.5664 273.338 47.7617C273.74 47.957 274.049 48.2461 274.264 48.6289C274.479 49.0117 274.586 49.4844 274.586 50.0469C274.586 50.5078 274.523 50.9023 274.398 51.2305C274.273 51.5547 274.096 51.8262 273.865 52.0449C273.635 52.2598 273.359 52.4316 273.039 52.5605L272.518 52.8711H270.297L270.291 51.4473H271.832C272.066 51.4473 272.26 51.3965 272.412 51.2949C272.568 51.1895 272.684 51.043 272.758 50.8555C272.836 50.6641 272.875 50.4414 272.875 50.1875C272.875 49.918 272.84 49.6875 272.77 49.4961C272.703 49.3008 272.596 49.1523 272.447 49.0508C272.303 48.9453 272.113 48.8926 271.879 48.8926H270.859V56H269.143V47.4688ZM273.016 56L271.451 52.1973L273.25 52.1914L274.85 55.918V56H273.016ZM276.391 47.4688H277.896L279.637 53.3047L281.371 47.4688H282.701L280.275 56H278.992L276.391 47.4688ZM275.781 47.4688H277.217L277.439 53.0938V56H275.781V47.4688ZM282.045 47.4688H283.486V56H281.834V53.0938L282.045 47.4688ZM290.881 51.0723V52.4961C290.881 53.0977 290.807 53.625 290.658 54.0781C290.514 54.5273 290.307 54.9043 290.037 55.209C289.771 55.5098 289.449 55.7363 289.07 55.8887C288.695 56.041 288.279 56.1172 287.822 56.1172C287.365 56.1172 286.947 56.041 286.568 55.8887C286.193 55.7363 285.869 55.5098 285.596 55.209C285.326 54.9043 285.117 54.5273 284.969 54.0781C284.82 53.625 284.746 53.0977 284.746 52.4961V51.0723C284.746 50.4551 284.818 49.916 284.963 49.4551C285.107 48.9902 285.316 48.6035 285.59 48.2949C285.863 47.9824 286.188 47.748 286.562 47.5918C286.938 47.4316 287.354 47.3516 287.811 47.3516C288.268 47.3516 288.684 47.4316 289.059 47.5918C289.434 47.748 289.758 47.9824 290.031 48.2949C290.305 48.6035 290.514 48.9902 290.658 49.4551C290.807 49.916 290.881 50.4551 290.881 51.0723ZM289.176 52.4961V51.0605C289.176 50.6543 289.146 50.3086 289.088 50.0234C289.029 49.7344 288.941 49.498 288.824 49.3145C288.707 49.1309 288.564 48.9961 288.396 48.9102C288.229 48.8242 288.033 48.7812 287.811 48.7812C287.588 48.7812 287.391 48.8242 287.219 48.9102C287.051 48.9961 286.908 49.1309 286.791 49.3145C286.678 49.498 286.592 49.7344 286.533 50.0234C286.479 50.3086 286.451 50.6543 286.451 51.0605V52.4961C286.451 52.8867 286.48 53.2207 286.539 53.498C286.598 53.7754 286.686 54.002 286.803 54.1777C286.92 54.3535 287.062 54.4844 287.23 54.5703C287.402 54.6523 287.6 54.6934 287.822 54.6934C288.041 54.6934 288.234 54.6523 288.402 54.5703C288.574 54.4844 288.717 54.3535 288.83 54.1777C288.943 54.002 289.029 53.7754 289.088 53.498C289.146 53.2207 289.176 52.8867 289.176 52.4961Z" fill="#FF6000"/>
</svg>
