<svg width="94" height="32" viewBox="0 0 94 32" fill="none" xmlns="http://www.w3.org/2000/svg">
<path d="M11.9648 21.1641V24H1.81641V21.1641H11.9648ZM11.8359 8.94141L3.31641 24H0.914062V21.9258L9.53906 6.9375H11.8359V8.94141ZM10.6758 6.9375V9.78516H0.84375V6.9375H10.6758ZM19.8633 16.5586H16.3711L16.3594 14.0742H19.3359C19.8047 14.0742 20.1875 13.9961 20.4844 13.8398C20.7891 13.6758 21.0117 13.4375 21.1523 13.125C21.3008 12.8047 21.375 12.418 21.375 11.9648C21.375 11.4414 21.3086 11.0234 21.1758 10.7109C21.043 10.3906 20.8281 10.1562 20.5312 10.0078C20.2344 9.85938 19.8477 9.78516 19.3711 9.78516H17.543V24H14.1094V6.9375H19.3711C20.2227 6.9375 20.9844 7.03125 21.6562 7.21875C22.3281 7.40625 22.8984 7.69141 23.3672 8.07422C23.8359 8.45703 24.1914 8.94141 24.4336 9.52734C24.6836 10.1133 24.8086 10.8047 24.8086 11.6016C24.8086 12.3047 24.668 12.9531 24.3867 13.5469C24.1055 14.1406 23.6641 14.625 23.0625 15C22.4688 15.375 21.6914 15.5859 20.7305 15.6328L19.8633 16.5586ZM19.7461 24H15.3984L16.7695 21.1641H19.7461C20.1992 21.1641 20.5664 21.0664 20.8477 20.8711C21.1289 20.6758 21.332 20.4141 21.457 20.0859C21.582 19.75 21.6445 19.3672 21.6445 18.9375C21.6445 18.4531 21.5859 18.0312 21.4688 17.6719C21.3594 17.3125 21.1758 17.0391 20.918 16.8516C20.6602 16.6562 20.3125 16.5586 19.875 16.5586H16.9219L16.9453 14.0742H20.5312L21.3398 15.0586C22.2539 15.0273 22.9844 15.2031 23.5312 15.5859C24.0781 15.9609 24.4688 16.4531 24.7031 17.0625C24.9453 17.6641 25.0664 18.3047 25.0664 18.9844C25.0664 20.0781 24.8594 21 24.4453 21.75C24.0391 22.4922 23.4414 23.0547 22.6523 23.4375C21.8633 23.8125 20.8945 24 19.7461 24ZM27.5977 6.9375H33.0703C34.2109 6.9375 35.1836 7.13281 35.9883 7.52344C36.793 7.91406 37.4102 8.49219 37.8398 9.25781C38.2695 10.0234 38.4844 10.9688 38.4844 12.0938C38.4844 13.0156 38.3594 13.8047 38.1094 14.4609C37.8594 15.1094 37.5039 15.6523 37.043 16.0898C36.582 16.5195 36.0312 16.8633 35.3906 17.1211L34.3477 17.7422H29.9062L29.8945 14.8945H32.9766C33.4453 14.8945 33.832 14.793 34.1367 14.5898C34.4492 14.3789 34.6797 14.0859 34.8281 13.7109C34.9844 13.3281 35.0625 12.8828 35.0625 12.375C35.0625 11.8359 34.9922 11.375 34.8516 10.9922C34.7188 10.6016 34.5039 10.3047 34.207 10.1016C33.918 9.89062 33.5391 9.78516 33.0703 9.78516H31.0312V24H27.5977V6.9375ZM35.3438 24L32.2148 16.3945L35.8125 16.3828L39.0117 23.8359V24H35.3438ZM52.8633 14.1445V16.9922C52.8633 18.1953 52.7148 19.25 52.418 20.1562C52.1289 21.0547 51.7148 21.8086 51.1758 22.418C50.6445 23.0195 50 23.4727 49.2422 23.7773C48.4922 24.082 47.6602 24.2344 46.7461 24.2344C45.832 24.2344 44.9961 24.082 44.2383 23.7773C43.4883 23.4727 42.8398 23.0195 42.293 22.418C41.7539 21.8086 41.3359 21.0547 41.0391 20.1562C40.7422 19.25 40.5938 18.1953 40.5938 16.9922V14.1445C40.5938 12.9102 40.7383 11.832 41.0273 10.9102C41.3164 9.98047 41.7344 9.20703 42.2812 8.58984C42.8281 7.96484 43.4766 7.49609 44.2266 7.18359C44.9766 6.86328 45.8086 6.70312 46.7227 6.70312C47.6367 6.70312 48.4688 6.86328 49.2188 7.18359C49.9688 7.49609 50.6172 7.96484 51.1641 8.58984C51.7109 9.20703 52.1289 9.98047 52.418 10.9102C52.7148 11.832 52.8633 12.9102 52.8633 14.1445ZM49.4531 16.9922V14.1211C49.4531 13.3086 49.3945 12.6172 49.2773 12.0469C49.1602 11.4688 48.9844 10.9961 48.75 10.6289C48.5156 10.2617 48.2305 9.99219 47.8945 9.82031C47.5586 9.64844 47.168 9.5625 46.7227 9.5625C46.2773 9.5625 45.8828 9.64844 45.5391 9.82031C45.2031 9.99219 44.918 10.2617 44.6836 10.6289C44.457 10.9961 44.2852 11.4688 44.168 12.0469C44.0586 12.6172 44.0039 13.3086 44.0039 14.1211V16.9922C44.0039 17.7734 44.0625 18.4414 44.1797 18.9961C44.2969 19.5508 44.4727 20.0039 44.707 20.3555C44.9414 20.707 45.2266 20.9688 45.5625 21.1406C45.9062 21.3047 46.3008 21.3867 46.7461 21.3867C47.1836 21.3867 47.5703 21.3047 47.9062 21.1406C48.25 20.9688 48.5352 20.707 48.7617 20.3555C48.9883 20.0039 49.1602 19.5508 49.2773 18.9961C49.3945 18.4414 49.4531 17.7734 49.4531 16.9922ZM60.9727 18.7383V6.9375H64.3945V18.75C64.3945 19.8828 64.1758 20.8633 63.7383 21.6914C63.3086 22.5117 62.7227 23.1406 61.9805 23.5781C61.2383 24.0156 60.4023 24.2344 59.4727 24.2344C58.5195 24.2344 57.668 24.0469 56.918 23.6719C56.1758 23.2891 55.5898 22.7109 55.1602 21.9375C54.7305 21.1562 54.5156 20.1641 54.5156 18.9609H57.9609C57.9609 19.5703 58.0234 20.0508 58.1484 20.4023C58.2734 20.7539 58.4492 21.0078 58.6758 21.1641C58.9102 21.3203 59.1758 21.3984 59.4727 21.3984C59.793 21.3984 60.0625 21.293 60.2812 21.082C60.5078 20.8711 60.6797 20.5703 60.7969 20.1797C60.9141 19.7812 60.9727 19.3008 60.9727 18.7383ZM73.043 9.98438L69.375 24H65.7539L71.0859 6.9375H73.3477L73.043 9.98438ZM75.9375 24L72.2461 9.98438L71.9062 6.9375H74.2031L79.582 24H75.9375ZM76.0664 17.6367V20.4844H68.3672V17.6367H76.0664ZM71.0625 5.98828L73.3594 2.36719H77.0508L73.8164 5.98828H71.0625ZM84.6445 6.9375V24H81.2109V6.9375H84.6445ZM93.1172 6.9375L87.5859 15.4102L84.1992 19.6289L83.543 16.1953L85.7344 12.5391L88.9453 6.9375H93.1172ZM89.1562 24L85.4297 16.1602L87.9492 13.9336L93.1992 24H89.1562Z" fill="white"/>
<circle cx="46.5" cy="15.5" r="4.5" fill="#FF6000"/>
<line x1="46.5" y1="7" x2="46.5" y2="24" stroke="#FF6000"/>
<line x1="38" y1="15.5" x2="55" y2="15.5" stroke="#FF6000"/>
<circle cx="47" cy="16" r="13.5" stroke="#FF6000"/>
<line x1="46.5" x2="46.5" y2="4" stroke="#FF6000"/>
<line x1="46.5" y1="28" x2="46.5" y2="32" stroke="#FF6000"/>
<line x1="59" y1="15.5" x2="63" y2="15.5" stroke="#FF6000"/>
<line x1="31" y1="15.5" x2="35" y2="15.5" stroke="#FF6000"/>
</svg>
